<svg version="1.2" xmlns="http://www.w3.org/2000/svg" viewBox="0 0 35 35" width="48" height="48">
	<title>fav-list-svg</title>
	<style>
		.s0 { opacity: .4;fill: #292d32 } 
		.s1 { fill: #292d32 } 
	</style>
	<g id="SVGRepo_bgCarrier">
	</g>
	<g id="SVGRepo_tracerCarrier">
	</g>
	<g id="SVGRepo_iconCarrier">
		<path id="Layer" class="s0" d="m21.2 8h-8.4c-3.6 0-5.8 2.1-5.8 5.8v8.4c0 3.6 2.2 5.8 5.8 5.8h8.4c3.6 0 5.8-2.2 5.8-5.8v-8.4c0-3.7-2.2-5.8-5.8-5.8z"/>
		<path id="Layer" class="s1" d="m23.3 14.8c0 0.5-0.3 0.8-0.7 0.8h-5.3c-0.4 0-0.7-0.3-0.7-0.8 0-0.4 0.3-0.7 0.7-0.7h5.3c0.4 0 0.7 0.3 0.7 0.7z"/>
		<path id="Layer" class="s1" d="m15 13.9l-2.3 2.2q-0.2 0.2-0.5 0.2c-0.2 0-0.4 0-0.5-0.2l-0.8-0.7c-0.3-0.3-0.3-0.8 0-1.1 0.3-0.3 0.8-0.3 1.1 0l0.2 0.2 1.7-1.7c0.3-0.3 0.8-0.3 1.1 0 0.3 0.3 0.3 0.8 0 1.1z"/>
		<path id="Layer" class="s1" d="m23.3 21.8c0 0.5-0.3 0.8-0.7 0.8h-5.3c-0.4 0-0.7-0.3-0.7-0.8 0-0.4 0.3-0.7 0.7-0.7h5.3c0.4 0 0.7 0.3 0.7 0.7z"/>
		<path id="Layer" class="s1" d="m15 20.9l-2.3 2.2q-0.2 0.2-0.5 0.2c-0.2 0-0.4 0-0.5-0.2l-0.8-0.7c-0.3-0.3-0.3-0.8 0-1.1 0.3-0.3 0.8-0.3 1.1 0l0.2 0.2 1.7-1.7c0.3-0.3 0.8-0.3 1.1 0 0.3 0.3 0.3 0.8 0 1.1z"/>
	</g>
</svg>