<svg version="1.2" xmlns="http://www.w3.org/2000/svg" viewBox="0 0 40 40" width="48" height="48">
	<title>search-svg</title>
	<style>
		.s0 { fill: #292d32 } 
		.s1 { opacity: .4;fill: #292d32 } 
	</style>
	<g id="SVGRepo_bgCarrier">
	</g>
	<g id="SVGRepo_tracerCarrier">
	</g>
	<g id="SVGRepo_iconCarrier">
		<path id="Layer" class="s0" d="m29.8 28.8l-0.7-0.8c0.3-0.5 0.6-1.2 0.6-1.9 0-2-1.6-3.6-3.6-3.6-2 0-3.6 1.6-3.6 3.6 0 2 1.6 3.6 3.6 3.6 0.7 0 1.4-0.3 1.9-0.6l0.8 0.7q0.2 0.2 0.5 0.2 0.3 0 0.5-0.2c0.3-0.3 0.3-0.8 0-1z"/>
		<path id="Layer" class="s1" d="m10 22.6q0 0.1 0 0.1c0.9 1.9 2.4 3.4 4.3 4.3q0 0 0.1 0-0.5-1.8-0.8-3.6-1.8-0.3-3.6-0.8z"/>
		<path id="Layer" class="s1" d="m27.1 14.4c-1-1.9-2.6-3.5-4.5-4.5q0.5 1.8 0.8 3.7 1.9 0.3 3.7 0.8z"/>
		<path id="Layer" class="s1" d="m9.9 14.4q1.8-0.5 3.7-0.8 0.3-1.8 0.8-3.6-0.1 0-0.1 0c-1.9 1-3.5 2.5-4.4 4.4z"/>
		<path id="Layer" class="s1" d="m21.8 13.4c-0.2-1.3-0.5-2.6-1-3.9q0-0.1 0-0.2c-0.7-0.2-1.5-0.3-2.3-0.3q-1.2 0-2.3 0.3 0 0.1-0.1 0.2-0.6 1.9-0.9 3.9 3.3-0.4 6.6 0z"/>
		<path id="Layer" class="s1" d="m13.4 15.2c-1.3 0.2-2.6 0.5-3.9 1q-0.1 0-0.2 0-0.3 1.1-0.3 2.3 0 1.2 0.3 2.3 0.1 0 0.2 0.1 1.9 0.6 3.9 0.9-0.4-3.3 0-6.6z"/>
		<path id="Layer" class="s1" d="m27.7 16.2q-0.1 0-0.2 0-1.9-0.7-3.9-1 0.4 3.3 0 6.6c1.3-0.2 2.6-0.5 3.9-1q0.1 0 0.2 0c0.2-0.7 0.3-1.5 0.3-2.3q0-1.2-0.3-2.3z"/>
		<path id="Layer" class="s1" d="m15.2 23.6c0.2 1.4 0.5 2.6 0.9 3.9q0.1 0.1 0.1 0.2c0.7 0.2 1.5 0.3 2.3 0.3q1.2 0 2.3-0.3 0-0.1 0-0.2 0.7-1.9 1-3.9-1.6 0.2-3.3 0.3-1.7-0.1-3.3-0.3z"/>
		<path id="Layer" class="s1" d="m14.9 15q-0.4 3.5 0 7.1 3.6 0.4 7.2 0 0.4-3.6 0-7.1-3.6-0.5-7.2 0z"/>
	</g>
</svg>